# xmcd CD database file
#
# Track frame offsets:
#	150
#	13915
#	28965
#	45765
#	60932
#	79275
#	94232
#	109282
#	123897
#	137940
#	158050
#	173572
#	187000
#	201942
#	216872
#
# Disc length: 3157 seconds
#
# Revision: 1
# Processed by: cddbd v1.5.2PL0 Copyright (c) Steve Scherf et al.
# Submitted via: CDex 1.51
#
DISCID=ce0c530f
DTITLE=Gene Simmons - ***hole
DYEAR=2004
DGENRE=Hard Rock
TTITLE0=Sweet and Dirty Love
TTITLE1=Firestarter
TTITLE2=Weapons Of Mass Destruction
TTITLE3=Waiting For The Morning Light
TTITLE4=Beautiful
TTITLE5=***hole
TTITLE6=Now That You're Gone
TTITLE7=Whatever Turns You On
TTITLE8=Dog
TTITLE9=Black Tongue
TTITLE10=Carnival Of Souls
TTITLE11=If I Had A Gun
TTITLE12=1,000 Dreams
TTITLE13=Everybody Knows
TTITLE14=You're My Reason For Living
EXTD=YEAR: 2004
EXTT0=
EXTT1=
EXTT2=
EXTT3=
EXTT4=
EXTT5=
EXTT6=
EXTT7=
EXTT8=
EXTT9=
EXTT10=
EXTT11=
EXTT12=
EXTT13=
EXTT14=
PLAYORDER=
